{
copyright = MedeiraCloud;
date = "2013-08-14 04:12:41 +0000";
familyName = "MadeiraIcon";
fontMaster = (
{
ascender = 840;
capHeight = 0;
descender = "-120";
id = "EAE21ECE-B6C3-4A45-AE76-37E4E2404B22";
xHeight = 0;
}
);
glyphs = (
{
glyphname = uniF110;
lastChange = "2013-08-15 15:01:16 +0800";
layers = (
{
layerId = "EAE21ECE-B6C3-4A45-AE76-37E4E2404B22";
name = Regular;
paths = (
{
closed = 1;
nodes = (
"120 540 OFFCURVE",
"120 180 OFFCURVE",
"120 120 CURVE SMOOTH",
"120 90 OFFCURVE",
"150 60 OFFCURVE",
"180 60 CURVE SMOOTH",
"210 60 OFFCURVE",
"720 270 OFFCURVE",
"750 300 CURVE SMOOTH",
"780 330 OFFCURVE",
"780 360 OFFCURVE",
"780 360 CURVE SMOOTH",
"780 360 OFFCURVE",
"780 390 OFFCURVE",
"750 420 CURVE SMOOTH",
"720 450 OFFCURVE",
"210 660 OFFCURVE",
"180 660 CURVE SMOOTH",
"150 660 OFFCURVE",
"120 630 OFFCURVE",
"120 600 CURVE"
);
}
);
width = 960;
}
);
unicode = F110;
},
{
glyphname = uniF111;
lastChange = "2013-08-24 10:39:40 +0800";
layers = (
{
layerId = "EAE21ECE-B6C3-4A45-AE76-37E4E2404B22";
name = Regular;
paths = (
{
closed = 1;
nodes = (
"720 660 LINE",
"750 660 OFFCURVE",
"780 630 OFFCURVE",
"780 600 CURVE",
"780 120 LINE",
"780 90 OFFCURVE",
"750 60 OFFCURVE",
"720 60 CURVE",
"690 60 OFFCURVE",
"270 60 OFFCURVE",
"240 60 CURVE",
"210 60 OFFCURVE",
"180 90 OFFCURVE",
"180 120 CURVE",
"180 600 LINE",
"180 630 OFFCURVE",
"210 660 OFFCURVE",
"240 660 CURVE"
);
}
);
width = 960;
}
);
unicode = F111;
},
{
glyphname = uniF112;
lastChange = "2013-08-14 13:44:40 +0800";
layers = (
{
layerId = "EAE21ECE-B6C3-4A45-AE76-37E4E2404B22";
name = Regular;
paths = (
{
closed = 1;
nodes = (
"840 240 LINE SMOOTH",
"840 240 OFFCURVE",
"840 300 OFFCURVE",
"780 300 CURVE SMOOTH",
"180 300 LINE SMOOTH",
"180 300 OFFCURVE",
"120 300 OFFCURVE",
"120 240 CURVE SMOOTH",
"120 -120 LINE",
"48 -78 OFFCURVE",
"0 -24 OFFCURVE",
"0 60 CURVE SMOOTH",
"0 660 LINE SMOOTH",
"0 744 OFFCURVE",
"48 804 OFFCURVE",
"120 840 CURVE",
"120 480 LINE SMOOTH",
"120 480 OFFCURVE",
"120 420 OFFCURVE",
"180 420 CURVE SMOOTH",
"780 420 LINE SMOOTH",
"780 420 OFFCURVE",
"840 420 OFFCURVE",
"840 480 CURVE SMOOTH",
"840 840 LINE",
"912 804 OFFCURVE",
"960 744 OFFCURVE",
"960 660 CURVE SMOOTH",
"960 60 LINE SMOOTH",
"960 -24 OFFCURVE",
"912 -78 OFFCURVE",
"840 -120 CURVE"
);
},
{
closed = 1;
nodes = (
"720 240 LINE SMOOTH",
"720 240 OFFCURVE",
"780 240 OFFCURVE",
"780 180 CURVE SMOOTH",
"780 -60 LINE SMOOTH",
"780 -60 OFFCURVE",
"780 -120 OFFCURVE",
"720 -120 CURVE SMOOTH",
"240 -120 LINE SMOOTH",
"240 -120 OFFCURVE",
"180 -120 OFFCURVE",
"180 -60 CURVE SMOOTH",
"180 180 LINE SMOOTH",
"180 180 OFFCURVE",
"180 240 OFFCURVE",
"240 240 CURVE SMOOTH"
);
},
{
closed = 1;
nodes = (
"360 480 LINE SMOOTH",
"360 480 OFFCURVE",
"300 480 OFFCURVE",
"300 540 CURVE SMOOTH",
"300 780 LINE",
"300 780 OFFCURVE",
"300 840 OFFCURVE",
"360 840 CURVE SMOOTH",
"720 840 LINE SMOOTH",
"720 840 OFFCURVE",
"780 840 OFFCURVE",
"780 780 CURVE SMOOTH",
"780 540 LINE SMOOTH",
"780 480 OFFCURVE",
"720 480 OFFCURVE",
"720 480 CURVE SMOOTH"
);
},
{
closed = 1;
nodes = (
"600 522 OFFCURVE",
"720 522 OFFCURVE",
"720 600 CURVE",
"720 720 LINE",
"720 798 OFFCURVE",
"600 798 OFFCURVE",
"600 720 CURVE SMOOTH",
"600 600 LINE"
);
}
);
width = 960;
}
);
unicode = F112;
},
{
glyphname = uniF113;
lastChange = "2013-08-14 13:44:45 +0800";
layers = (
{
layerId = "EAE21ECE-B6C3-4A45-AE76-37E4E2404B22";
name = Regular;
paths = (
{
closed = 1;
nodes = (
"900 660 LINE",
"900 540 LINE",
"480 360 LINE SMOOTH",
"60 540 LINE",
"60 660 LINE",
"480 840 LINE"
);
},
{
closed = 1;
nodes = (
"60 480 LINE",
"480 300 LINE",
"900 480 LINE",
"900 300 LINE",
"480 120 LINE",
"60 300 LINE"
);
},
{
closed = 1;
nodes = (
"60 240 LINE",
"480 60 LINE",
"900 240 LINE",
"900 60 LINE",
"480 -120 LINE",
"60 60 LINE"
);
}
);
width = 960;
}
);
unicode = F113;
},
{
glyphname = uniF114;
lastChange = "2013-08-14 14:00:48 +0800";
layers = (
{
guideLines = (
{
angle = 90;
position = "{445, 60}";
}
);
layerId = "EAE21ECE-B6C3-4A45-AE76-37E4E2404B22";
name = Regular;
paths = (
{
closed = 1;
nodes = (
"835 148 OFFCURVE",
"720 240 OFFCURVE",
"540 240 CURVE",
"540 120 LINE SMOOTH",
"540 96 OFFCURVE",
"541 74 OFFCURVE",
"513 60 CURVE",
"493 54 OFFCURVE",
"464 68 OFFCURVE",
"445 80 CURVE SMOOTH",
"85 310 LINE",
"60 330 OFFCURVE",
"60 360 OFFCURVE",
"60 360 CURVE SMOOTH",
"60 360 OFFCURVE",
"60 390 OFFCURVE",
"85 410 CURVE",
"445 640 LINE SMOOTH",
"463 652 OFFCURVE",
"489 666 OFFCURVE",
"508 658 CURVE",
"540 640 OFFCURVE",
"540 619 OFFCURVE",
"540 600 CURVE SMOOTH",
"540 480 LINE",
"720 480 OFFCURVE",
"900 300 OFFCURVE",
"900 120 CURVE SMOOTH",
"900 60 OFFCURVE",
"895 43 OFFCURVE",
"888 0 CURVE"
);
}
);
width = 960;
}
);
unicode = F114;
},
{
glyphname = uniF115;
lastChange = "2013-08-14 14:02:06 +0800";
layers = (
{
layerId = "EAE21ECE-B6C3-4A45-AE76-37E4E2404B22";
name = Regular;
paths = (
{
closed = 1;
nodes = (
"65 43 OFFCURVE",
"60 60 OFFCURVE",
"60 120 CURVE SMOOTH",
"60 300 OFFCURVE",
"240 480 OFFCURVE",
"420 480 CURVE",
"420 600 LINE SMOOTH",
"420 619 OFFCURVE",
"420 640 OFFCURVE",
"452 658 CURVE",
"471 666 OFFCURVE",
"497 652 OFFCURVE",
"515 640 CURVE SMOOTH",
"875 410 LINE",
"900 390 OFFCURVE",
"900 360 OFFCURVE",
"900 360 CURVE SMOOTH",
"900 360 OFFCURVE",
"900 330 OFFCURVE",
"875 310 CURVE",
"515 80 LINE SMOOTH",
"496 68 OFFCURVE",
"467 54 OFFCURVE",
"447 60 CURVE",
"419 74 OFFCURVE",
"420 96 OFFCURVE",
"420 120 CURVE SMOOTH",
"420 240 LINE",
"240 240 OFFCURVE",
"125 148 OFFCURVE",
"72 0 CURVE"
);
}
);
width = 960;
}
);
unicode = F115;
},
{
glyphname = uniF116;
lastChange = "2013-08-28 23:57:15 +0800";
layers = (
{
guideLines = (
{
angle = 270;
position = "{841, 723}";
}
);
layerId = "EAE21ECE-B6C3-4A45-AE76-37E4E2404B22";
name = Regular;
paths = (
{
closed = 1;
nodes = (
"600 390 OFFCURVE",
"585 360 OFFCURVE",
"540 360 CURVE SMOOTH",
"480 360 LINE",
"480 300 LINE SMOOTH",
"480 255 OFFCURVE",
"450 240 OFFCURVE",
"420 240 CURVE SMOOTH",
"390 240 OFFCURVE",
"360 255 OFFCURVE",
"360 300 CURVE SMOOTH",
"360 360 LINE",
"300 360 LINE SMOOTH",
"255 360 OFFCURVE",
"240 390 OFFCURVE",
"240 420 CURVE SMOOTH",
"240 450 OFFCURVE",
"255 480 OFFCURVE",
"300 480 CURVE SMOOTH",
"360 480 LINE",
"360 540 LINE SMOOTH",
"360 585 OFFCURVE",
"390 600 OFFCURVE",
"420 600 CURVE SMOOTH",
"448 600 OFFCURVE",
"480 585 OFFCURVE",
"480 540 CURVE SMOOTH",
"480 480 LINE",
"540 480 LINE SMOOTH",
"585 480 OFFCURVE",
"600 450 OFFCURVE",
"600 420 CURVE SMOOTH"
);
},
{
closed = 1;
nodes = (
"580 23 OFFCURVE",
"503 0 OFFCURVE",
"420 0 CURVE SMOOTH",
"188 0 OFFCURVE",
"0 188 OFFCURVE",
"0 420 CURVE SMOOTH",
"0 652 OFFCURVE",
"188 840 OFFCURVE",
"420 840 CURVE SMOOTH",
"652 840 OFFCURVE",
"840 652 OFFCURVE",
"840 420 CURVE SMOOTH",
"840 337 OFFCURVE",
"816 259 OFFCURVE",
"774 194 CURVE",
"934 30 LINE SMOOTH",
"968 -5 OFFCURVE",
"968 -60 OFFCURVE",
"934 -93 CURVE SMOOTH",
"901 -129 OFFCURVE",
"846 -127 OFFCURVE",
"811 -93 CURVE SMOOTH",
"645 64 LINE"
);
},
{
closed = 1;
nodes = (
"585 120 OFFCURVE",
"720 254 OFFCURVE",
"720 420 CURVE SMOOTH",
"720 586 OFFCURVE",
"585 720 OFFCURVE",
"420 720 CURVE SMOOTH",
"254 720 OFFCURVE",
"120 586 OFFCURVE",
"120 420 CURVE SMOOTH",
"120 254 OFFCURVE",
"254 120 OFFCURVE",
"420 120 CURVE SMOOTH"
);
}
);
width = 960;
}
);
unicode = F116;
},
{
glyphname = uniF117;
lastChange = "2013-08-14 14:13:52 +0800";
layers = (
{
layerId = "EAE21ECE-B6C3-4A45-AE76-37E4E2404B22";
name = Regular;
paths = (
{
closed = 1;
nodes = (
"600 390 OFFCURVE",
"585 360 OFFCURVE",
"540 360 CURVE",
"300 360 LINE",
"255 360 OFFCURVE",
"240 390 OFFCURVE",
"240 420 CURVE SMOOTH",
"240 450 OFFCURVE",
"255 480 OFFCURVE",
"300 480 CURVE SMOOTH",
"540 480 LINE SMOOTH",
"585 480 OFFCURVE",
"600 450 OFFCURVE",
"600 420 CURVE"
);
},
{
closed = 1;
nodes = (
"580 23 OFFCURVE",
"503 0 OFFCURVE",
"420 0 CURVE SMOOTH",
"188 0 OFFCURVE",
"0 188 OFFCURVE",
"0 420 CURVE SMOOTH",
"0 652 OFFCURVE",
"188 840 OFFCURVE",
"420 840 CURVE SMOOTH",
"652 840 OFFCURVE",
"840 652 OFFCURVE",
"840 420 CURVE SMOOTH",
"840 337 OFFCURVE",
"816 259 OFFCURVE",
"774 194 CURVE",
"934 30 LINE SMOOTH",
"968 -5 OFFCURVE",
"968 -60 OFFCURVE",
"934 -93 CURVE SMOOTH",
"901 -129 OFFCURVE",
"846 -127 OFFCURVE",
"811 -93 CURVE SMOOTH",
"645 64 LINE"
);
},
{
closed = 1;
nodes = (
"585 120 OFFCURVE",
"720 254 OFFCURVE",
"720 420 CURVE SMOOTH",
"720 586 OFFCURVE",
"585 720 OFFCURVE",
"420 720 CURVE SMOOTH",
"254 720 OFFCURVE",
"120 586 OFFCURVE",
"120 420 CURVE SMOOTH",
"120 254 OFFCURVE",
"254 120 OFFCURVE",
"420 120 CURVE SMOOTH"
);
}
);
width = 960;
}
);
unicode = F117;
},
{
glyphname = uniF118;
lastChange = "2013-08-15 15:07:20 +0800";
layers = (
{
layerId = "EAE21ECE-B6C3-4A45-AE76-37E4E2404B22";
name = Regular;
paths = (
{
closed = 1;
nodes = (
"840 140 LINE SMOOTH",
"840 100 OFFCURVE",
"800 60 OFFCURVE",
"760 60 CURVE SMOOTH",
"200 60 LINE SMOOTH",
"160 60 OFFCURVE",
"120 100 OFFCURVE",
"120 140 CURVE SMOOTH",
"120 480 LINE SMOOTH",
"120 480 OFFCURVE",
"122 525 OFFCURVE",
"165 540 CURVE",
"240 660 LINE",
"180 660 LINE SMOOTH",
"60 660 OFFCURVE",
"0 542 OFFCURVE",
"0 480 CURVE SMOOTH",
"0 120 LINE SMOOTH",
"0 0 OFFCURVE",
"80 -60 OFFCURVE",
"180 -60 CURVE SMOOTH",
"780 -60 LINE SMOOTH",
"880 -60 OFFCURVE",
"960 0 OFFCURVE",
"960 120 CURVE SMOOTH",
"960 360 LINE",
"840 272 LINE"
);
},
{
closed = 1;
nodes = (
"698 300 OFFCURVE",
"931 477 OFFCURVE",
"945 495 CURVE SMOOTH",
"960 515 OFFCURVE",
"960 540 OFFCURVE",
"960 540 CURVE SMOOTH",
"960 540 OFFCURVE",
"960 565 OFFCURVE",
"945 585 CURVE SMOOTH",
"930 605 OFFCURVE",
"700 780 OFFCURVE",
"660 780 CURVE SMOOTH",
"620 780 OFFCURVE",
"600 750 OFFCURVE",
"600 720 CURVE",
"600 660 LINE",
"420 660 OFFCURVE",
"240 480 OFFCURVE",
"240 300 CURVE SMOOTH",
"240 258 OFFCURVE",
"243 225 OFFCURVE",
"252 180 CURVE",
"308 314 OFFCURVE",
"442 420 OFFCURVE",
"600 420 CURVE",
"600 360 LINE",
"600 330 OFFCURVE",
"620 300 OFFCURVE",
"660 300 CURVE SMOOTH"
);
}
);
width = 960;
}
);
unicode = F118;
},
{
glyphname = uniF119;
lastChange = "2013-08-24 10:39:07 +0800";
layers = (
{
layerId = "EAE21ECE-B6C3-4A45-AE76-37E4E2404B22";
name = Regular;
paths = (
{
closed = 1;
nodes = (
"360 -60 LINE",
"600 -60 LINE",
"600 780 LINE",
"360 780 LINE"
);
},
{
closed = 1;
nodes = (
"60 240 LINE",
"900 240 LINE",
"900 480 LINE",
"60 480 LINE"
);
}
);
width = 960;
}
);
unicode = F119;
},
{
glyphname = uniF11A;
lastChange = "2013-08-21 11:35:06 +0800";
layers = (
{
layerId = "EAE21ECE-B6C3-4A45-AE76-37E4E2404B22";
name = Regular;
paths = (
{
closed = 1;
nodes = (
"900 -120 OFFCURVE",
"960 -60 OFFCURVE",
"960 0 CURVE",
"960 720 LINE",
"960 780 OFFCURVE",
"900 840 OFFCURVE",
"840 840 CURVE",
"120 840 LINE",
"60 840 OFFCURVE",
"0 780 OFFCURVE",
"0 720 CURVE",
"0 0 LINE SMOOTH",
"0 -60 OFFCURVE",
"60 -120 OFFCURVE",
"120 -120 CURVE",
"840 -120 LINE"
);
},
{
closed = 1;
nodes = (
"120 650 LINE",
"120 650 OFFCURVE",
"130 720 OFFCURVE",
"190 720 CURVE",
"770 720 LINE",
"830 720 OFFCURVE",
"840 650 OFFCURVE",
"840 650 CURVE",
"840 70 LINE",
"840 70 OFFCURVE",
"830 0 OFFCURVE",
"770 0 CURVE",
"190 0 LINE",
"130 0 OFFCURVE",
"120 70 OFFCURVE",
"120 70 CURVE"
);
},
{
closed = 1;
nodes = (
"240 300 LINE",
"720 300 LINE",
"720 420 LINE",
"240 420 LINE"
);
},
{
closed = 1;
nodes = (
"420 120 LINE",
"540 120 LINE",
"540 600 LINE",
"420 600 LINE"
);
}
);
width = 960;
}
);
unicode = F11A;
},
{
glyphname = uniF11B;
lastChange = "2013-08-21 11:46:59 +0800";
layers = (
{
layerId = "EAE21ECE-B6C3-4A45-AE76-37E4E2404B22";
name = Regular;
paths = (
{
closed = 1;
nodes = (
"900 -120 OFFCURVE",
"960 -60 OFFCURVE",
"960 0 CURVE",
"960 540 LINE",
"960 600 OFFCURVE",
"900 660 OFFCURVE",
"840 660 CURVE",
"300 660 LINE",
"240 660 OFFCURVE",
"180 600 OFFCURVE",
"180 540 CURVE",
"180 0 LINE SMOOTH",
"180 -60 OFFCURVE",
"240 -120 OFFCURVE",
"300 -120 CURVE",
"840 -120 LINE"
);
},
{
closed = 1;
nodes = (
"120 45 LINE",
"57 96 OFFCURVE",
"0 180 OFFCURVE",
"0 240 CURVE SMOOTH",
"0 660 LINE",
"0 660 OFFCURVE",
"0 840 OFFCURVE",
"180 840 CURVE",
"600 840 LINE",
"660 840 OFFCURVE",
"747 797 OFFCURVE",
"800 720 CURVE",
"740 720 OFFCURVE",
"750 720 OFFCURVE",
"270 720 CURVE",
"180 720 OFFCURVE",
"120 660 OFFCURVE",
"120 570 CURVE"
);
},
{
closed = 1;
nodes = (
"720 120 LINE",
"840 120 LINE",
"840 60 LINE",
"840 60 OFFCURVE",
"840 0 OFFCURVE",
"780 0 CURVE",
"720 0 LINE"
);
},
{
closed = 1;
nodes = (
"660 240 LINE",
"600 240 OFFCURVE",
"600 180 OFFCURVE",
"600 180 CURVE",
"600 0 LINE",
"360 0 LINE",
"300 0 OFFCURVE",
"300 60 OFFCURVE",
"300 60 CURVE",
"300 480 LINE",
"300 480 OFFCURVE",
"300 540 OFFCURVE",
"360 540 CURVE",
"780 540 LINE",
"840 540 OFFCURVE",
"840 480 OFFCURVE",
"840 480 CURVE",
"840 240 LINE"
);
}
);
width = 960;
}
);
unicode = F11B;
},
{
glyphname = uniF11C;
lastChange = "2013-08-28 11:25:24 +0800";
layers = (
{
layerId = "EAE21ECE-B6C3-4A45-AE76-37E4E2404B22";
name = Regular;
paths = (
{
closed = 1;
nodes = (
"210 720 LINE SMOOTH",
"185 720 OFFCURVE",
"163 711 OFFCURVE",
"146 694 CURVE SMOOTH",
"129 677 OFFCURVE",
"120 655 OFFCURVE",
"120 630 CURVE SMOOTH",
"120 600 LINE",
"840 600 LINE",
"840 630 LINE SMOOTH",
"840 655 OFFCURVE",
"831 677 OFFCURVE",
"814 694 CURVE SMOOTH",
"797 711 OFFCURVE",
"775 720 OFFCURVE",
"750 720 CURVE SMOOTH"
);
},
{
closed = 1;
nodes = (
"593 780 LINE",
"606 686 LINE",
"355 686 LINE",
"368 780 LINE"
);
},
{
closed = 1;
nodes = (
"360 840 LINE SMOOTH",
"347 840 OFFCURVE",
"336 836 OFFCURVE",
"326 827 CURVE SMOOTH",
"317 818 OFFCURVE",
"311 809 OFFCURVE",
"310 795 CURVE SMOOTH",
"291 670 LINE SMOOTH",
"289 656 OFFCURVE",
"293 647 OFFCURVE",
"300 640 CURVE",
"308 630 OFFCURVE",
"317 626 OFFCURVE",
"330 626 CURVE SMOOTH",
"630 626 LINE SMOOTH",
"644 626 OFFCURVE",
"653 630 OFFCURVE",
"660 640 CURVE",
"668 647 OFFCURVE",
"671 656 OFFCURVE",
"670 670 CURVE SMOOTH",
"651 795 LINE SMOOTH",
"649 809 OFFCURVE",
"644 818 OFFCURVE",
"634 827 CURVE SMOOTH",
"625 836 OFFCURVE",
"614 840 OFFCURVE",
"600 840 CURVE SMOOTH"
);
},
{
closed = 1;
nodes = (
"195 540 LINE SMOOTH",
"178 540 OFFCURVE",
"165 535 OFFCURVE",
"155 524 CURVE SMOOTH",
"144 510 OFFCURVE",
"139 497 OFFCURVE",
"140 480 CURVE SMOOTH",
"189 -60 LINE SMOOTH",
"191 -77 OFFCURVE",
"199 -90 OFFCURVE",
"211 -101 CURVE",
"225 -115 OFFCURVE",
"238 -120 OFFCURVE",
"255 -120 CURVE SMOOTH",
"705 -120 LINE SMOOTH",
"722 -120 OFFCURVE",
"737 -115 OFFCURVE",
"750 -101 CURVE",
"764 -90 OFFCURVE",
"769 -77 OFFCURVE",
"771 -60 CURVE SMOOTH",
"820 480 LINE SMOOTH",
"821 497 OFFCURVE",
"816 510 OFFCURVE",
"806 524 CURVE",
"795 535 OFFCURVE",
"782 540 OFFCURVE",
"765 540 CURVE SMOOTH"
);
},
{
closed = 1;
nodes = (
"360 0 LINE",
"270 0 LINE",
"240 420 LINE",
"360 420 LINE"
);
},
{
closed = 1;
nodes = (
"540 0 LINE",
"420 0 LINE",
"420 420 LINE",
"540 420 LINE"
);
},
{
closed = 1;
nodes = (
"690 0 LINE",
"600 0 LINE",
"600 420 LINE",
"720 420 LINE"
);
}
);
width = 960;
}
);
unicode = F11C;
},
{
glyphname = uniF11D;
lastChange = "2013-08-21 12:13:43 +0800";
layers = (
{
layerId = "EAE21ECE-B6C3-4A45-AE76-37E4E2404B22";
name = Regular;
paths = (
{
closed = 1;
nodes = (
"840 659 LINE",
"120 659 LINE",
"120 59 LINE",
"840 59 LINE"
);
},
{
closed = 1;
nodes = (
"180 359 LINE",
"353 239 LINE",
"600 539 LINE",
"780 239 LINE",
"780 119 LINE",
"180 119 LINE",
"180 299 LINE"
);
},
{
closed = 1;
nodes = (
"320 420 OFFCURVE",
"360 460 OFFCURVE",
"360 510 CURVE SMOOTH",
"360 560 OFFCURVE",
"320 600 OFFCURVE",
"270 600 CURVE SMOOTH",
"220 600 OFFCURVE",
"180 560 OFFCURVE",
"180 510 CURVE SMOOTH",
"180 460 OFFCURVE",
"220 420 OFFCURVE",
"270 420 CURVE SMOOTH"
);
},
{
closed = 1;
nodes = (
"60 -60 CURVE",
"0 -60 OFFCURVE",
"0 0 OFFCURVE",
"0 0 CURVE",
"0 720 LINE",
"0 780 OFFCURVE",
"60 780 OFFCURVE",
"60 780 CURVE",
"60 780 OFFCURVE",
"600 780 OFFCURVE",
"900 780 CURVE",
"960 780 OFFCURVE",
"960 720 OFFCURVE",
"960 720 CURVE",
"960 720 OFFCURVE",
"960 0 OFFCURVE",
"960 0 CURVE",
"960 0 OFFCURVE",
"960 -60 OFFCURVE",
"900 -60 CURVE",
"840 -60 OFFCURVE",
"60 -60 OFFCURVE"
);
}
);
width = 960;
}
);
unicode = F11D;
},
{
glyphname = uniF11E;
lastChange = "2013-08-24 10:36:33 +0800";
layers = (
{
layerId = "EAE21ECE-B6C3-4A45-AE76-37E4E2404B22";
name = Regular;
paths = (
{
closed = 1;
nodes = (
"489 684 OFFCURVE",
"515 710 OFFCURVE",
"540 720 CURVE",
"180 720 LINE",
"120 720 OFFCURVE",
"120 660 OFFCURVE",
"120 660 CURVE",
"120 0 LINE",
"480 0 LINE",
"480 664 LINE SMOOTH"
);
},
{
closed = 1;
nodes = (
"420 120 LINE",
"420 60 LINE",
"180 60 LINE",
"180 120 LINE"
);
},
{
closed = 1;
nodes = (
"420 300 LINE",
"420 240 LINE",
"180 240 LINE",
"180 300 LINE"
);
},
{
closed = 1;
nodes = (
"420 480 LINE",
"420 420 LINE",
"180 420 LINE",
"180 480 LINE"
);
},
{
closed = 1;
nodes = (
"420 660 LINE",
"420 600 LINE",
"180 600 LINE",
"180 660 LINE"
);
},
{
closed = 1;
nodes = (
"816 510 OFFCURVE",
"870 564 OFFCURVE",
"870 630 CURVE SMOOTH",
"870 696 OFFCURVE",
"816 750 OFFCURVE",
"750 750 CURVE SMOOTH",
"684 750 OFFCURVE",
"630 696 OFFCURVE",
"630 630 CURVE SMOOTH",
"630 564 OFFCURVE",
"684 510 OFFCURVE",
"750 510 CURVE SMOOTH"
);
},
{
closed = 1;
nodes = (
"600 -120 LINE",
"0 -120 LINE",
"0 660 LINE",
"0 720 OFFCURVE",
"0 840 OFFCURVE",
"180 840 CURVE",
"750 840 LINE",
"866 840 OFFCURVE",
"960 746 OFFCURVE",
"960 630 CURVE SMOOTH",
"960 514 OFFCURVE",
"866 420 OFFCURVE",
"750 420 CURVE SMOOTH",
"690 420 OFFCURVE",
"638 444 OFFCURVE",
"600 484 CURVE"
);
}
);
width = 960;
}
);
unicode = F11E;
},
{
glyphname = uniF11F;
lastChange = "2013-08-21 12:14:49 +0800";
layers = (
{
layerId = "EAE21ECE-B6C3-4A45-AE76-37E4E2404B22";
name = Regular;
paths = (
{
closed = 1;
nodes = (
"120 60 LINE",
"300 -120 LINE",
"780 360 LINE",
"300 840 LINE",
"120 660 LINE",
"420 360 LINE"
);
}
);
width = 960;
}
);
unicode = F11F;
},
{
glyphname = uniF120;
lastChange = "2013-08-21 12:32:01 +0800";
layers = (
{
layerId = "EAE21ECE-B6C3-4A45-AE76-37E4E2404B22";
name = Regular;
paths = (
{
closed = 1;
nodes = (
"780 660 LINE",
"600 840 LINE",
"120 360 LINE",
"600 -120 LINE",
"780 60 LINE",
"480 360 LINE"
);
}
);
width = 960;
}
);
unicode = F120;
},
{
glyphname = uniF121;
lastChange = "2013-08-23 12:14:21 +0800";
layers = (
{
layerId = "EAE21ECE-B6C3-4A45-AE76-37E4E2404B22";
name = Regular;
paths = (
{
closed = 1;
nodes = (
"780 478 LINE",
"180 478 LINE",
"480 120 LINE"
);
}
);
width = 960;
}
);
unicode = F121;
},
{
glyphname = uniF122;
lastChange = "2013-08-28 11:12:25 +0800";
layers = (
{
layerId = "EAE21ECE-B6C3-4A45-AE76-37E4E2404B22";
name = Regular;
paths = (
{
closed = 1;
nodes = (
"388 -840 OFFCURVE",
"572.198 -840 OFFCURVE",
"480.225 -840 CURVE SMOOTH"
);
},
{
closed = 1;
nodes = (
"129 328 OFFCURVE",
"120 374 OFFCURVE",
"120 420 CURVE SMOOTH",
"120 512 OFFCURVE",
"155 605 OFFCURVE",
"225 675 CURVE SMOOTH",
"295 745 OFFCURVE",
"388 780 OFFCURVE",
"480 780 CURVE SMOOTH",
"572 780 OFFCURVE",
"665 745 OFFCURVE",
"735 675 CURVE SMOOTH",
"805 604 OFFCURVE",
"840 512 OFFCURVE",
"840 420 CURVE SMOOTH",
"840 328 OFFCURVE",
"805 236 OFFCURVE",
"735 165 CURVE SMOOTH",
"665 95 OFFCURVE",
"572 60 OFFCURVE",
"480 60 CURVE SMOOTH",
"388 60 OFFCURVE",
"295 95 OFFCURVE",
"225 165 CURVE SMOOTH",
"190 200 OFFCURVE",
"164 240 OFFCURVE",
"146 284 CURVE SMOOTH"
);
},
{
closed = 1;
nodes = (
"559 420 LINE",
"648 509 LINE SMOOTH",
"653 514 OFFCURVE",
"653 523 OFFCURVE",
"648 528 CURVE SMOOTH",
"588 588 LINE SMOOTH",
"583 593 OFFCURVE",
"574 593 OFFCURVE",
"569 588 CURVE SMOOTH",
"480 499 LINE",
"391 588 LINE SMOOTH",
"386 593 OFFCURVE",
"377 593 OFFCURVE",
"372 588 CURVE SMOOTH",
"312 528 LINE SMOOTH",
"307 523 OFFCURVE",
"307 514 OFFCURVE",
"312 509 CURVE SMOOTH",
"401 420 LINE",
"312 331 LINE SMOOTH",
"307 326 OFFCURVE",
"307 317 OFFCURVE",
"312 312 CURVE SMOOTH",
"372 252 LINE SMOOTH",
"377 247 OFFCURVE",
"386 247 OFFCURVE",
"391 252 CURVE SMOOTH",
"480 341 LINE",
"569 252 LINE SMOOTH",
"574 247 OFFCURVE",
"583 247 OFFCURVE",
"588 252 CURVE SMOOTH",
"648 312 LINE SMOOTH",
"653 317 OFFCURVE",
"653 326 OFFCURVE",
"648 331 CURVE SMOOTH"
);
}
);
width = 960;
}
);
unicode = F122;
},
{
glyphname = uniF123;
lastChange = "2013-08-24 10:49:14 +0800";
layers = (
{
layerId = "EAE21ECE-B6C3-4A45-AE76-37E4E2404B22";
name = Regular;
paths = (
{
closed = 1;
nodes = (
"315 370 LINE",
"150 205 LINE SMOOTH",
"129 184 OFFCURVE",
"119 157 OFFCURVE",
"119 123 CURVE SMOOTH",
"119 88 OFFCURVE",
"129 61 OFFCURVE",
"150 40 CURVE SMOOTH",
"171 19 OFFCURVE",
"198 9 OFFCURVE",
"233 9 CURVE SMOOTH",
"267 9 OFFCURVE",
"294 19 OFFCURVE",
"315 40 CURVE SMOOTH",
"480 205 LINE",
"645 40 LINE SMOOTH",
"666 19 OFFCURVE",
"693 9 OFFCURVE",
"728 9 CURVE SMOOTH",
"762 9 OFFCURVE",
"789 19 OFFCURVE",
"810 40 CURVE SMOOTH",
"831 61 OFFCURVE",
"841 88 OFFCURVE",
"841 123 CURVE SMOOTH",
"841 157 OFFCURVE",
"831 184 OFFCURVE",
"810 205 CURVE SMOOTH",
"645 370 LINE",
"810 535 LINE SMOOTH",
"831 556 OFFCURVE",
"841 583 OFFCURVE",
"841 618 CURVE SMOOTH",
"841 652 OFFCURVE",
"831 679 OFFCURVE",
"810 700 CURVE SMOOTH",
"789 721 OFFCURVE",
"762 731 OFFCURVE",
"728 731 CURVE SMOOTH",
"693 731 OFFCURVE",
"666 721 OFFCURVE",
"645 700 CURVE SMOOTH",
"480 535 LINE",
"315 700 LINE SMOOTH",
"294 721 OFFCURVE",
"267 731 OFFCURVE",
"233 731 CURVE SMOOTH",
"198 731 OFFCURVE",
"171 721 OFFCURVE",
"150 700 CURVE SMOOTH",
"129 679 OFFCURVE",
"119 652 OFFCURVE",
"119 618 CURVE SMOOTH",
"119 583 OFFCURVE",
"129 556 OFFCURVE",
"150 535 CURVE SMOOTH"
);
}
);
width = 960;
}
);
unicode = F123;
},
{
glyphname = uniF124;
lastChange = "2013-08-28 10:42:39 +0800";
layers = (
{
layerId = "EAE21ECE-B6C3-4A45-AE76-37E4E2404B22";
name = Regular;
paths = (
{
closed = 1;
nodes = (
"540 360 LINE",
"120 660 LINE",
"120 60 LINE"
);
}
);
width = 600;
}
);
unicode = F124;
},
{
glyphname = uniF125;
lastChange = "2013-08-28 10:43:55 +0800";
layers = (
{
layerId = "EAE21ECE-B6C3-4A45-AE76-37E4E2404B22";
name = Regular;
paths = (
{
closed = 1;
nodes = (
"120 360 LINE",
"540 660 LINE",
"540 60 LINE"
);
}
);
width = 600;
}
);
unicode = F125;
},
{
glyphname = uniF126;
lastChange = "2013-08-28 11:16:21 +0800";
layers = (
{
layerId = "EAE21ECE-B6C3-4A45-AE76-37E4E2404B22";
name = Regular;
paths = (
{
closed = 1;
nodes = (
"559 420 LINE",
"648 509 LINE SMOOTH",
"653 514 OFFCURVE",
"653 523 OFFCURVE",
"648 528 CURVE SMOOTH",
"588 588 LINE SMOOTH",
"583 593 OFFCURVE",
"574 593 OFFCURVE",
"569 588 CURVE SMOOTH",
"480 499 LINE",
"391 588 LINE SMOOTH",
"386 593 OFFCURVE",
"377 593 OFFCURVE",
"372 588 CURVE SMOOTH",
"312 528 LINE SMOOTH",
"307 523 OFFCURVE",
"307 514 OFFCURVE",
"312 509 CURVE SMOOTH",
"401 420 LINE",
"312 331 LINE SMOOTH",
"307 326 OFFCURVE",
"307 317 OFFCURVE",
"312 312 CURVE SMOOTH",
"372 252 LINE SMOOTH",
"377 247 OFFCURVE",
"386 247 OFFCURVE",
"391 252 CURVE SMOOTH",
"480 341 LINE",
"569 252 LINE SMOOTH",
"574 247 OFFCURVE",
"583 247 OFFCURVE",
"588 252 CURVE SMOOTH",
"648 312 LINE SMOOTH",
"653 317 OFFCURVE",
"653 326 OFFCURVE",
"648 331 CURVE SMOOTH"
);
}
);
width = 960;
}
);
unicode = F126;
},
{
glyphname = uniF127;
lastChange = "2013-08-28 11:22:48 +0800";
layers = (
{
layerId = "EAE21ECE-B6C3-4A45-AE76-37E4E2404B22";
name = Regular;
paths = (
{
closed = 1;
nodes = (
"120 520 OFFCURVE",
"160 610 OFFCURVE",
"225 675 CURVE SMOOTH",
"290 740 OFFCURVE",
"381 780 OFFCURVE",
"480 780 CURVE SMOOTH",
"580 780 OFFCURVE",
"670 740 OFFCURVE",
"735 675 CURVE SMOOTH",
"800 610 OFFCURVE",
"840 520 OFFCURVE",
"840 420 CURVE SMOOTH",
"840 320 OFFCURVE",
"800 230 OFFCURVE",
"735 165 CURVE SMOOTH",
"670 100 OFFCURVE",
"580 60 OFFCURVE",
"480 60 CURVE SMOOTH",
"381 60 OFFCURVE",
"290 100 OFFCURVE",
"225 165 CURVE SMOOTH",
"160 230 OFFCURVE",
"120 320 OFFCURVE",
"120 420 CURVE SMOOTH"
);
},
{
closed = 1;
nodes = (
"378 477 LINE SMOOTH",
"378 468 OFFCURVE",
"383 464 OFFCURVE",
"391 464 CURVE SMOOTH",
"430 464 LINE",
"430 263 LINE",
"395 263 LINE SMOOTH",
"388 263 OFFCURVE",
"381 257 OFFCURVE",
"381 250 CURVE SMOOTH",
"381 194 LINE SMOOTH",
"381 187 OFFCURVE",
"388 180 OFFCURVE",
"395 180 CURVE SMOOTH",
"576 180 LINE SMOOTH",
"583 180 OFFCURVE",
"589 187 OFFCURVE",
"589 194 CURVE SMOOTH",
"589 250 LINE SMOOTH",
"589 259 OFFCURVE",
"585 263 OFFCURVE",
"576 263 CURVE SMOOTH",
"541 263 LINE",
"541 525 LINE SMOOTH",
"541 532 OFFCURVE",
"536 539 OFFCURVE",
"528 539 CURVE SMOOTH",
"391 539 LINE SMOOTH",
"384 539 OFFCURVE",
"378 533 OFFCURVE",
"378 525 CURVE SMOOTH"
);
},
{
closed = 1;
nodes = (
"421 590 LINE SMOOTH",
"421 583 OFFCURVE",
"428 576 OFFCURVE",
"436 576 CURVE SMOOTH",
"527 576 LINE SMOOTH",
"535 576 OFFCURVE",
"541 583 OFFCURVE",
"541 590 CURVE SMOOTH",
"541 670 LINE SMOOTH",
"541 679 OFFCURVE",
"536 684 OFFCURVE",
"527 684 CURVE SMOOTH",
"436 684 LINE SMOOTH",
"428 684 OFFCURVE",
"421 677 OFFCURVE",
"421 670 CURVE SMOOTH"
);
}
);
width = 960;
}
);
unicode = F127;
},
{
glyphname = uniF128;
lastChange = "2013-08-29 10:53:17 +0800";
layers = (
{
layerId = "EAE21ECE-B6C3-4A45-AE76-37E4E2404B22";
name = Regular;
paths = (
{
closed = 1;
nodes = (
"675 495 LINE SMOOTH",
"675 556 OFFCURVE",
"650 614 OFFCURVE",
"609 654 CURVE SMOOTH",
"569 695 OFFCURVE",
"511 720 OFFCURVE",
"450 720 CURVE SMOOTH",
"368 720 OFFCURVE",
"296 677 OFFCURVE",
"255 608 CURVE SMOOTH",
"235 573 OFFCURVE",
"225 536 OFFCURVE",
"225 495 CURVE SMOOTH",
"225 405 LINE",
"200 405 OFFCURVE",
"180 385 OFFCURVE",
"180 360 CURVE SMOOTH",
"180 45 LINE SMOOTH",
"180 20 OFFCURVE",
"200 0 OFFCURVE",
"225 0 CURVE SMOOTH",
"675 0 LINE SMOOTH",
"700 0 OFFCURVE",
"720 20 OFFCURVE",
"720 45 CURVE SMOOTH",
"720 360 LINE SMOOTH",
"720 385 OFFCURVE",
"700 405 OFFCURVE",
"675 405 CURVE"
);
},
{
closed = 1;
nodes = (
"518 111 LINE",
"518 98 OFFCURVE",
"508 87 OFFCURVE",
"495 87 CURVE SMOOTH",
"404 87 LINE SMOOTH",
"391 87 OFFCURVE",
"381 98 OFFCURVE",
"381 111 CURVE",
"410 213 LINE",
"410 216 OFFCURVE",
"411 219 OFFCURVE",
"412 222 CURVE",
"400 232 OFFCURVE",
"392 248 OFFCURVE",
"392 266 CURVE SMOOTH",
"392 297 OFFCURVE",
"418 323 OFFCURVE",
"450 323 CURVE SMOOTH",
"482 323 OFFCURVE",
"508 298 OFFCURVE",
"508 266 CURVE SMOOTH",
"508 248 OFFCURVE",
"500 232 OFFCURVE",
"487 221 CURVE",
"488 219 OFFCURVE",
"489 216 OFFCURVE",
"489 214 CURVE"
);
},
{
closed = 1;
nodes = (
"315 405 LINE",
"315 495 LINE SMOOTH",
"315 569 OFFCURVE",
"375 630 OFFCURVE",
"450 630 CURVE SMOOTH",
"525 630 OFFCURVE",
"585 569 OFFCURVE",
"585 495 CURVE SMOOTH",
"585 405 LINE"
);
}
);
width = 960;
}
);
unicode = F128;
},
{
glyphname = uniF129;
lastChange = "2013-08-29 15:32:49 +0800";
layers = (
{
layerId = "EAE21ECE-B6C3-4A45-AE76-37E4E2404B22";
name = Regular;
paths = (
{
closed = 1;
nodes = (
"780 15 OFFCURVE",
"767 0 OFFCURVE",
"749 0 CURVE SMOOTH",
"212 0 LINE SMOOTH",
"194 0 OFFCURVE",
"180 15 OFFCURVE",
"180 34 CURVE",
"224 220 LINE",
"227 238 OFFCURVE",
"269 351 OFFCURVE",
"447 359 CURVE",
"374 377 OFFCURVE",
"321 461 OFFCURVE",
"321 545 CURVE SMOOTH",
"321 640 OFFCURVE",
"392 720 OFFCURVE",
"480 720 CURVE SMOOTH",
"568 720 OFFCURVE",
"639 640 OFFCURVE",
"639 545 CURVE SMOOTH",
"639 461 OFFCURVE",
"584 377 OFFCURVE",
"513 359 CURVE",
"691 351 OFFCURVE",
"733 238 OFFCURVE",
"736 220 CURVE",
"780 34 LINE"
);
}
);
width = 960;
}
);
unicode = F129;
},
{
glyphname = uniF12A;
lastChange = "2013-08-28 22:36:15 +0800";
layers = (
{
layerId = "EAE21ECE-B6C3-4A45-AE76-37E4E2404B22";
name = Regular;
paths = (
{
closed = 1;
nodes = (
"415 17 OFFCURVE",
"358 64 OFFCURVE",
"346 128 CURVE",
"379 144 OFFCURVE",
"416 151 OFFCURVE",
"453 153 CURVE SMOOTH",
"465 154 OFFCURVE",
"477 154 OFFCURVE",
"489 154 CURVE SMOOTH",
"525 153 OFFCURVE",
"559 149 OFFCURVE",
"591 137 CURVE SMOOTH",
"603 133 OFFCURVE",
"605 133 OFFCURVE",
"614 128 CURVE",
"602 64 OFFCURVE",
"545 17 OFFCURVE",
"480 17 CURVE SMOOTH"
);
},
{
closed = 1;
nodes = (
"530 -51 OFFCURVE",
"576 -46 OFFCURVE",
"617 -33 CURVE SMOOTH",
"701 -9 OFFCURVE",
"754 35 OFFCURVE",
"754 86 CURVE SMOOTH",
"754 110 OFFCURVE",
"742 133 OFFCURVE",
"718 154 CURVE SMOOTH",
"669 197 OFFCURVE",
"579 223 OFFCURVE",
"480 223 CURVE SMOOTH",
"430 223 OFFCURVE",
"384 217 OFFCURVE",
"343 205 CURVE SMOOTH",
"259 181 OFFCURVE",
"206 135 OFFCURVE",
"206 86 CURVE SMOOTH",
"206 62 OFFCURVE",
"218 39 OFFCURVE",
"242 17 CURVE SMOOTH",
"291 -25 OFFCURVE",
"381 -51 OFFCURVE",
"480 -51 CURVE SMOOTH"
);
},
{
closed = 1;
nodes = (
"406 -120 OFFCURVE",
"337 -111 OFFCURVE",
"273 -93 CURVE SMOOTH",
"147 -56 OFFCURVE",
"69 11 OFFCURVE",
"69 86 CURVE SMOOTH",
"69 127 OFFCURVE",
"91 163 OFFCURVE",
"137 199 CURVE",
"137 360 LINE SMOOTH",
"137 498 OFFCURVE",
"221 622 OFFCURVE",
"346 675 CURVE",
"344 688 OFFCURVE",
"343 697 OFFCURVE",
"343 703 CURVE SMOOTH",
"343 777 OFFCURVE",
"403 840 OFFCURVE",
"480 840 CURVE SMOOTH",
"557 840 OFFCURVE",
"617 777 OFFCURVE",
"617 703 CURVE SMOOTH",
"617 694 OFFCURVE",
"616 685 OFFCURVE",
"614 675 CURVE",
"739 622 OFFCURVE",
"823 498 OFFCURVE",
"823 360 CURVE SMOOTH",
"823 199 LINE",
"869 163 OFFCURVE",
"891 127 OFFCURVE",
"891 86 CURVE SMOOTH",
"891 48 OFFCURVE",
"873 14 OFFCURVE",
"837 -18 CURVE SMOOTH",
"763 -80 OFFCURVE",
"630 -120 OFFCURVE",
"480 -120 CURVE SMOOTH"
);
}
);
width = 960;
}
);
unicode = F12A;
},
{
glyphname = uniF12B;
lastChange = "2013-08-28 22:34:55 +0800";
layers = (
{
layerId = "EAE21ECE-B6C3-4A45-AE76-37E4E2404B22";
name = Regular;
paths = (
{
closed = 1;
nodes = (
"705 315 LINE",
"703 314 LINE",
"704 314 LINE"
);
},
{
closed = 1;
nodes = (
"564 193 OFFCURVE",
"456 193 OFFCURVE",
"391 249 CURVE SMOOTH",
"353 284 LINE",
"103 65 LINE",
"110 63 OFFCURVE",
"119 60 OFFCURVE",
"129 60 CURVE SMOOTH",
"891 60 LINE SMOOTH",
"901 60 OFFCURVE",
"910 63 OFFCURVE",
"918 65 CURVE",
"668 284 LINE",
"629 249 LINE SMOOTH"
);
},
{
closed = 1;
nodes = (
"60 120 LINE SMOOTH",
"60 113 OFFCURVE",
"61 106 OFFCURVE",
"65 99 CURVE",
"314 318 LINE",
"60 539 LINE"
);
},
{
closed = 1;
nodes = (
"129 660 LINE SMOOTH",
"91 660 OFFCURVE",
"60 633 OFFCURVE",
"60 600 CURVE",
"426 280 LINE SMOOTH",
"473 240 OFFCURVE",
"548 240 OFFCURVE",
"594 280 CURVE SMOOTH",
"960 600 LINE",
"960 633 OFFCURVE",
"929 660 OFFCURVE",
"891 660 CURVE SMOOTH"
);
},
{
closed = 1;
nodes = (
"706 318 LINE",
"955 99 LINE",
"959 106 OFFCURVE",
"960 113 OFFCURVE",
"960 120 CURVE SMOOTH",
"960 539 LINE"
);
}
);
width = 960;
}
);
unicode = F12B;
},
{
glyphname = uniF12C;
lastChange = "2013-08-29 00:16:43 +0800";
layers = (
{
layerId = "EAE21ECE-B6C3-4A45-AE76-37E4E2404B22";
name = Regular;
paths = (
{
closed = 1;
nodes = (
"13 487 OFFCURVE",
"0 425 OFFCURVE",
"0 360 CURVE SMOOTH",
"0 231 OFFCURVE",
"55 106 OFFCURVE",
"141 21 CURVE SMOOTH",
"226 -65 OFFCURVE",
"351 -120 OFFCURVE",
"480 -120 CURVE SMOOTH",
"609 -120 OFFCURVE",
"735 -65 OFFCURVE",
"821 21 CURVE SMOOTH",
"905 106 OFFCURVE",
"960 231 OFFCURVE",
"960 360 CURVE SMOOTH",
"960 490 OFFCURVE",
"905 615 OFFCURVE",
"821 701 CURVE SMOOTH",
"735 785 OFFCURVE",
"610 840 OFFCURVE",
"480 840 CURVE SMOOTH",
"351 840 OFFCURVE",
"226 785 OFFCURVE",
"141 701 CURVE SMOOTH",
"97 657 OFFCURVE",
"63 607 OFFCURVE",
"38 546 CURVE SMOOTH"
);
},
{
closed = 1;
nodes = (
"136 234 OFFCURVE",
"120 295 OFFCURVE",
"120 360 CURVE SMOOTH",
"120 490 OFFCURVE",
"190 608 OFFCURVE",
"301 672 CURVE SMOOTH",
"354 704 OFFCURVE",
"415 720 OFFCURVE",
"480 720 CURVE SMOOTH",
"610 720 OFFCURVE",
"728 650 OFFCURVE",
"792 542 CURVE SMOOTH",
"824 486 OFFCURVE",
"840 425 OFFCURVE",
"840 360 CURVE SMOOTH",
"840 230 OFFCURVE",
"770 112 OFFCURVE",
"662 48 CURVE SMOOTH",
"606 16 OFFCURVE",
"545 0 OFFCURVE",
"480 0 CURVE SMOOTH",
"350 0 OFFCURVE",
"232 70 OFFCURVE",
"168 181 CURVE SMOOTH"
);
},
{
closed = 1;
nodes = (
"247 391 OFFCURVE",
"240 376 OFFCURVE",
"240 360 CURVE SMOOTH",
"240 327 OFFCURVE",
"266 301 OFFCURVE",
"301 301 CURVE SMOOTH",
"661 301 LINE SMOOTH",
"694 301 OFFCURVE",
"720 327 OFFCURVE",
"720 360 CURVE SMOOTH",
"720 393 OFFCURVE",
"694 421 OFFCURVE",
"661 421 CURVE SMOOTH",
"301 421 LINE SMOOTH",
"285 421 OFFCURVE",
"270 415 OFFCURVE",
"257 402 CURVE SMOOTH"
);
}
);
width = 960;
}
);
unicode = F12C;
},
{
glyphname = uniF12D;
lastChange = "2013-08-29 00:16:57 +0800";
layers = (
{
layerId = "EAE21ECE-B6C3-4A45-AE76-37E4E2404B22";
name = Regular;
paths = (
{
closed = 1;
nodes = (
"12 487 OFFCURVE",
"0 425 OFFCURVE",
"0 360 CURVE SMOOTH",
"0 231 OFFCURVE",
"55 107 OFFCURVE",
"140 20 CURVE SMOOTH",
"227 -65 OFFCURVE",
"351 -120 OFFCURVE",
"480 -120 CURVE SMOOTH",
"609 -120 OFFCURVE",
"735 -65 OFFCURVE",
"820 20 CURVE SMOOTH",
"905 107 OFFCURVE",
"960 231 OFFCURVE",
"960 360 CURVE SMOOTH",
"960 491 OFFCURVE",
"905 615 OFFCURVE",
"820 700 CURVE SMOOTH",
"735 785 OFFCURVE",
"611 840 OFFCURVE",
"480 840 CURVE SMOOTH",
"351 840 OFFCURVE",
"227 785 OFFCURVE",
"140 700 CURVE SMOOTH",
"97 657 OFFCURVE",
"63 607 OFFCURVE",
"37 547 CURVE SMOOTH"
);
},
{
closed = 1;
nodes = (
"136 235 OFFCURVE",
"120 295 OFFCURVE",
"120 360 CURVE SMOOTH",
"120 491 OFFCURVE",
"189 608 OFFCURVE",
"300 672 CURVE SMOOTH",
"355 704 OFFCURVE",
"415 720 OFFCURVE",
"480 720 CURVE SMOOTH",
"611 720 OFFCURVE",
"728 651 OFFCURVE",
"792 541 CURVE SMOOTH",
"824 485 OFFCURVE",
"840 425 OFFCURVE",
"840 360 CURVE SMOOTH",
"840 229 OFFCURVE",
"771 112 OFFCURVE",
"661 48 CURVE SMOOTH",
"605 16 OFFCURVE",
"545 0 OFFCURVE",
"480 0 CURVE SMOOTH",
"349 0 OFFCURVE",
"232 69 OFFCURVE",
"168 180 CURVE SMOOTH"
);
},
{
closed = 1;
nodes = (
"257 320 LINE SMOOTH",
"245 331 OFFCURVE",
"240 345 OFFCURVE",
"240 360 CURVE SMOOTH",
"240 392 OFFCURVE",
"265 417 OFFCURVE",
"297 417 CURVE SMOOTH",
"313 417 OFFCURVE",
"327 412 OFFCURVE",
"339 401 CURVE SMOOTH",
"419 320 LINE",
"621 523 LINE SMOOTH",
"633 533 OFFCURVE",
"647 539 OFFCURVE",
"663 539 CURVE SMOOTH",
"695 539 OFFCURVE",
"720 513 OFFCURVE",
"720 481 CURVE SMOOTH",
"720 465 OFFCURVE",
"715 452 OFFCURVE",
"703 441 CURVE SMOOTH",
"460 197 LINE SMOOTH",
"448 187 OFFCURVE",
"435 181 OFFCURVE",
"420 181 CURVE SMOOTH",
"404 181 OFFCURVE",
"391 187 OFFCURVE",
"379 197 CURVE SMOOTH"
);
}
);
width = 960;
}
);
unicode = F12D;
},
{
glyphname = uniF12E;
lastChange = "2013-08-29 00:17:06 +0800";
layers = (
{
layerId = "EAE21ECE-B6C3-4A45-AE76-37E4E2404B22";
name = Regular;
paths = (
{
closed = 1;
nodes = (
"12 487 OFFCURVE",
"0 425 OFFCURVE",
"0 360 CURVE SMOOTH",
"0 231 OFFCURVE",
"55 107 OFFCURVE",
"140 20 CURVE SMOOTH",
"227 -65 OFFCURVE",
"351 -120 OFFCURVE",
"480 -120 CURVE SMOOTH",
"609 -120 OFFCURVE",
"735 -65 OFFCURVE",
"820 20 CURVE SMOOTH",
"905 107 OFFCURVE",
"960 231 OFFCURVE",
"960 360 CURVE SMOOTH",
"960 491 OFFCURVE",
"905 615 OFFCURVE",
"820 700 CURVE SMOOTH",
"735 785 OFFCURVE",
"611 840 OFFCURVE",
"480 840 CURVE SMOOTH",
"351 840 OFFCURVE",
"227 785 OFFCURVE",
"140 700 CURVE SMOOTH",
"97 657 OFFCURVE",
"63 607 OFFCURVE",
"37 547 CURVE SMOOTH"
);
},
{
closed = 1;
nodes = (
"136 235 OFFCURVE",
"120 295 OFFCURVE",
"120 360 CURVE SMOOTH",
"120 491 OFFCURVE",
"189 608 OFFCURVE",
"300 672 CURVE SMOOTH",
"355 704 OFFCURVE",
"415 720 OFFCURVE",
"480 720 CURVE SMOOTH",
"611 720 OFFCURVE",
"728 651 OFFCURVE",
"792 541 CURVE SMOOTH",
"824 485 OFFCURVE",
"840 425 OFFCURVE",
"840 360 CURVE SMOOTH",
"840 229 OFFCURVE",
"771 112 OFFCURVE",
"661 48 CURVE SMOOTH",
"605 16 OFFCURVE",
"545 0 OFFCURVE",
"480 0 CURVE SMOOTH",
"349 0 OFFCURVE",
"232 69 OFFCURVE",
"168 180 CURVE SMOOTH"
);
},
{
closed = 1;
nodes = (
"161 84 OFFCURVE",
"167 69 OFFCURVE",
"179 59 CURVE SMOOTH",
"201 35 OFFCURVE",
"240 35 OFFCURVE",
"263 59 CURVE SMOOTH",
"781 577 LINE SMOOTH",
"805 600 OFFCURVE",
"805 639 OFFCURVE",
"781 661 CURVE SMOOTH",
"759 685 OFFCURVE",
"720 685 OFFCURVE",
"697 661 CURVE SMOOTH",
"179 143 LINE SMOOTH",
"167 132 OFFCURVE",
"161 117 OFFCURVE",
"161 101 CURVE SMOOTH"
);
}
);
width = 960;
}
);
unicode = F12E;
},
{
glyphname = uniF12F;
lastChange = "2013-08-29 11:00:05 +0800";
layers = (
{
layerId = "EAE21ECE-B6C3-4A45-AE76-37E4E2404B22";
name = Regular;
paths = (
{
closed = 1;
nodes = (
"901 379 OFFCURVE",
"894 396 OFFCURVE",
"881 409 CURVE SMOOTH",
"740 550 LINE SMOOTH",
"717 574 OFFCURVE",
"679 574 OFFCURVE",
"655 550 CURVE SMOOTH",
"632 527 OFFCURVE",
"632 489 OFFCURVE",
"655 465 CURVE SMOOTH",
"700 420 LINE",
"540 420 LINE",
"540 540 LINE SMOOTH",
"540 573 OFFCURVE",
"513 600 OFFCURVE",
"480 600 CURVE SMOOTH",
"118 600 LINE SMOOTH",
"85 600 OFFCURVE",
"61 573 OFFCURVE",
"61 540 CURVE SMOOTH",
"61 180 LINE SMOOTH",
"61 147 OFFCURVE",
"85 120 OFFCURVE",
"118 120 CURVE SMOOTH",
"480 120 LINE SMOOTH",
"513 120 OFFCURVE",
"540 147 OFFCURVE",
"540 180 CURVE SMOOTH",
"540 300 LINE",
"694 300 LINE",
"655 261 LINE SMOOTH",
"632 237 OFFCURVE",
"632 199 OFFCURVE",
"655 176 CURVE SMOOTH",
"679 152 OFFCURVE",
"717 152 OFFCURVE",
"740 176 CURVE SMOOTH",
"881 317 LINE SMOOTH",
"894 330 OFFCURVE",
"901 347 OFFCURVE",
"900 363 CURVE"
);
},
{
closed = 1;
nodes = (
"118 180 LINE",
"118 540 LINE",
"480 540 LINE",
"480 180 LINE"
);
}
);
width = 960;
}
);
unicode = F12F;
},
{
glyphname = uniF130;
lastChange = "2013-08-29 10:59:51 +0800";
layers = (
{
layerId = "EAE21ECE-B6C3-4A45-AE76-37E4E2404B22";
name = Regular;
paths = (
{
closed = 1;
nodes = (
"540 585 OFFCURVE",
"513 600 OFFCURVE",
"480 600 CURVE SMOOTH",
"119 600 LINE SMOOTH",
"85 600 OFFCURVE",
"60 573 OFFCURVE",
"60 540 CURVE SMOOTH",
"60 180 LINE SMOOTH",
"60 147 OFFCURVE",
"85 120 OFFCURVE",
"119 120 CURVE SMOOTH",
"480 120 LINE SMOOTH",
"513 120 OFFCURVE",
"540 159 OFFCURVE",
"540 180 CURVE SMOOTH",
"540 540 LINE SMOOTH"
);
},
{
closed = 1;
nodes = (
"119 180 LINE",
"119 540 LINE",
"480 540 LINE",
"480 180 LINE"
);
},
{
closed = 1;
nodes = (
"539 379 OFFCURVE",
"546 396 OFFCURVE",
"557 409 CURVE SMOOTH",
"678 550 LINE SMOOTH",
"700 575 OFFCURVE",
"739 574 OFFCURVE",
"762 550 CURVE SMOOTH",
"786 527 OFFCURVE",
"786 489 OFFCURVE",
"762 465 CURVE SMOOTH",
"717 420 LINE",
"840 420 LINE",
"840 420 LINE",
"840 420 OFFCURVE",
"840 420 OFFCURVE",
"840 420 CURVE SMOOTH",
"874 420 OFFCURVE",
"900 393 OFFCURVE",
"900 360 CURVE SMOOTH",
"900 327 OFFCURVE",
"874 300 OFFCURVE",
"840 300 CURVE SMOOTH",
"840 300 OFFCURVE",
"840 300 OFFCURVE",
"840 300 CURVE",
"840 300 LINE",
"723 300 LINE",
"762 261 LINE SMOOTH",
"786 237 OFFCURVE",
"786 199 OFFCURVE",
"762 176 CURVE SMOOTH",
"739 152 OFFCURVE",
"700 151 OFFCURVE",
"678 176 CURVE SMOOTH",
"557 317 LINE SMOOTH",
"546 330 OFFCURVE",
"539 347 OFFCURVE",
"540 363 CURVE"
);
}
);
width = 960;
}
);
unicode = F130;
},
{
glyphname = uniF131;
lastChange = "2013-08-29 00:17:19 +0800";
layers = (
{
layerId = "EAE21ECE-B6C3-4A45-AE76-37E4E2404B22";
name = Regular;
paths = (
{
closed = 1;
nodes = (
"944 383 OFFCURVE",
"923 399 OFFCURVE",
"897 399 CURVE SMOOTH",
"861 399 LINE",
"861 400 OFFCURVE",
"861 400 OFFCURVE",
"861 400 CURVE SMOOTH",
"861 643 OFFCURVE",
"668 840 OFFCURVE",
"429 840 CURVE SMOOTH",
"192 840 OFFCURVE",
"0 643 OFFCURVE",
"0 400 CURVE SMOOTH",
"0 157 OFFCURVE",
"192 -40 OFFCURVE",
"429 -40 CURVE SMOOTH",
"523 -40 OFFCURVE",
"609 -11 OFFCURVE",
"677 40 CURVE",
"587 135 LINE",
"541 107 OFFCURVE",
"487 91 OFFCURVE",
"429 91 CURVE SMOOTH",
"264 91 OFFCURVE",
"127 229 OFFCURVE",
"127 400 CURVE SMOOTH",
"127 571 OFFCURVE",
"264 709 OFFCURVE",
"429 709 CURVE SMOOTH",
"597 709 OFFCURVE",
"733 571 OFFCURVE",
"733 400 CURVE SMOOTH",
"733 400 OFFCURVE",
"733 400 OFFCURVE",
"733 399 CURVE",
"697 399 LINE SMOOTH",
"672 399 OFFCURVE",
"651 383 OFFCURVE",
"643 361 CURVE SMOOTH",
"636 341 OFFCURVE",
"639 315 OFFCURVE",
"655 296 CURVE SMOOTH",
"756 191 LINE SMOOTH",
"768 179 OFFCURVE",
"781 172 OFFCURVE",
"797 172 CURVE SMOOTH",
"813 172 OFFCURVE",
"827 179 OFFCURVE",
"839 191 CURVE SMOOTH",
"939 296 LINE SMOOTH",
"957 315 OFFCURVE",
"960 341 OFFCURVE",
"952 361 CURVE SMOOTH"
);
}
);
width = 960;
}
);
unicode = F131;
},
{
glyphname = uniF132;
lastChange = "2013-08-29 11:23:56 +0800";
layers = (
{
layerId = "EAE21ECE-B6C3-4A45-AE76-37E4E2404B22";
name = Regular;
paths = (
{
closed = 1;
nodes = (
"800 808 OFFCURVE",
"720 840 OFFCURVE",
"688 808 CURVE",
"688 808 LINE",
"120 240 LINE",
"0 -72 LINE",
"0 -72 OFFCURVE",
"0 -72 OFFCURVE",
"0 -72 CURVE SMOOTH",
"0 -104 OFFCURVE",
"16 -120 OFFCURVE",
"48 -120 CURVE SMOOTH",
"48 -120 OFFCURVE",
"48 -120 OFFCURVE",
"48 -120 CURVE",
"361 0 LINE SMOOTH",
"928 568 LINE",
"928 568 LINE",
"960 600 OFFCURVE",
"928 680 OFFCURVE",
"864 744 CURVE SMOOTH"
);
},
{
closed = 1;
nodes = (
"180 180 LINE",
"300 60 LINE",
"118 0 LINE"
);
},
{
closed = 1;
nodes = (
"240 240 LINE",
"656 664 LINE",
"780 540 LINE",
"360 120 LINE"
);
}
);
width = 960;
}
);
unicode = F132;
},
{
glyphname = uniF133;
lastChange = "2013-08-30 12:01:11 +0800";
layers = (
{
layerId = "EAE21ECE-B6C3-4A45-AE76-37E4E2404B22";
name = Regular;
paths = (
{
closed = 1;
nodes = (
"60 720 LINE SMOOTH",
"27 720 OFFCURVE",
"0 693 OFFCURVE",
"0 660 CURVE SMOOTH",
"0 180 LINE SMOOTH",
"0 147 OFFCURVE",
"27 120 OFFCURVE",
"60 120 CURVE SMOOTH",
"600 120 LINE SMOOTH",
"633 120 OFFCURVE",
"660 147 OFFCURVE",
"660 180 CURVE SMOOTH",
"660 660 LINE SMOOTH",
"660 693 OFFCURVE",
"633 720 OFFCURVE",
"600 720 CURVE SMOOTH"
);
},
{
closed = 1;
nodes = (
"120 240 LINE",
"120 600 LINE",
"540 600 LINE",
"540 240 LINE"
);
},
{
closed = 1;
nodes = (
"720 260 LINE SMOOTH",
"720 245 OFFCURVE",
"725 233 OFFCURVE",
"739 225 CURVE SMOOTH",
"745 221 OFFCURVE",
"752 220 OFFCURVE",
"759 220 CURVE SMOOTH",
"765 220 OFFCURVE",
"772 221 OFFCURVE",
"777 224 CURVE",
"937 384 LINE",
"951 391 OFFCURVE",
"960 405 OFFCURVE",
"960 420 CURVE SMOOTH",
"960 435 OFFCURVE",
"951 449 OFFCURVE",
"937 456 CURVE",
"777 616 LINE",
"772 619 OFFCURVE",
"765 620 OFFCURVE",
"759 620 CURVE SMOOTH",
"752 620 OFFCURVE",
"745 619 OFFCURVE",
"739 615 CURVE SMOOTH",
"725 607 OFFCURVE",
"720 595 OFFCURVE",
"720 580 CURVE SMOOTH"
);
}
);
width = 960;
}
);
unicode = F133;
},
{
glyphname = uniF134;
lastChange = "2013-08-30 12:21:27 +0800";
layers = (
{
layerId = "EAE21ECE-B6C3-4A45-AE76-37E4E2404B22";
name = Regular;
paths = (
{
closed = 1;
nodes = (
"215 619 OFFCURVE",
"207 620 OFFCURVE",
"200 620 CURVE SMOOTH",
"193 620 OFFCURVE",
"188 619 OFFCURVE",
"183 616 CURVE",
"21 456 LINE",
"9 449 OFFCURVE",
"0 435 OFFCURVE",
"0 420 CURVE SMOOTH",
"0 405 OFFCURVE",
"9 391 OFFCURVE",
"21 384 CURVE",
"183 224 LINE",
"188 221 OFFCURVE",
"193 220 OFFCURVE",
"200 220 CURVE SMOOTH",
"208 220 OFFCURVE",
"215 221 OFFCURVE",
"221 225 CURVE SMOOTH",
"233 233 OFFCURVE",
"240 245 OFFCURVE",
"240 260 CURVE SMOOTH",
"240 580 LINE SMOOTH",
"240 595 OFFCURVE",
"233 607 OFFCURVE",
"221 615 CURVE SMOOTH"
);
},
{
closed = 1;
nodes = (
"360 720 LINE SMOOTH",
"327 720 OFFCURVE",
"300 693 OFFCURVE",
"300 660 CURVE SMOOTH",
"300 180 LINE SMOOTH",
"300 147 OFFCURVE",
"327 120 OFFCURVE",
"360 120 CURVE SMOOTH",
"900 120 LINE SMOOTH",
"933 120 OFFCURVE",
"960 147 OFFCURVE",
"960 180 CURVE SMOOTH",
"960 660 LINE SMOOTH",
"960 693 OFFCURVE",
"933 720 OFFCURVE",
"900 720 CURVE SMOOTH"
);
},
{
closed = 1;
nodes = (
"420 240 LINE",
"420 600 LINE",
"840 600 LINE",
"840 240 LINE"
);
}
);
width = 960;
}
);
unicode = F134;
},
{
glyphname = uniF136;
lastChange = "2013-08-30 12:22:34 +0800";
layers = (
{
layerId = "EAE21ECE-B6C3-4A45-AE76-37E4E2404B22";
name = Regular;
paths = (
{
closed = 1;
nodes = (
"709 625 OFFCURVE",
"710 633 OFFCURVE",
"710 640 CURVE SMOOTH",
"710 647 OFFCURVE",
"709 652 OFFCURVE",
"706 657 CURVE",
"546 819 LINE",
"539 831 OFFCURVE",
"525 840 OFFCURVE",
"510 840 CURVE SMOOTH",
"495 840 OFFCURVE",
"481 831 OFFCURVE",
"474 819 CURVE",
"314 657 LINE",
"311 652 OFFCURVE",
"310 647 OFFCURVE",
"310 640 CURVE SMOOTH",
"310 632 OFFCURVE",
"311 625 OFFCURVE",
"315 619 CURVE SMOOTH",
"323 607 OFFCURVE",
"335 600 OFFCURVE",
"350 600 CURVE SMOOTH",
"670 600 LINE SMOOTH",
"685 600 OFFCURVE",
"697 607 OFFCURVE",
"705 619 CURVE SMOOTH"
);
},
{
closed = 1;
nodes = (
"240 540 LINE SMOOTH",
"207 540 OFFCURVE",
"180 513 OFFCURVE",
"180 480 CURVE SMOOTH",
"180 0 LINE SMOOTH",
"180 -33 OFFCURVE",
"207 -60 OFFCURVE",
"240 -60 CURVE SMOOTH",
"780 -60 LINE SMOOTH",
"813 -60 OFFCURVE",
"840 -33 OFFCURVE",
"840 0 CURVE SMOOTH",
"840 480 LINE SMOOTH",
"840 513 OFFCURVE",
"813 540 OFFCURVE",
"780 540 CURVE SMOOTH"
);
},
{
closed = 1;
nodes = (
"300 60 LINE",
"300 420 LINE",
"720 420 LINE",
"720 60 LINE"
);
}
);
width = 960;
}
);
unicode = F136;
},
{
glyphname = uniF137;
lastChange = "2013-08-30 14:21:44 +0800";
layers = (
{
layerId = "EAE21ECE-B6C3-4A45-AE76-37E4E2404B22";
name = Regular;
paths = (
{
closed = 1;
nodes = (
"6 391 OFFCURVE",
"0 376 OFFCURVE",
"0 360 CURVE SMOOTH",
"0 327 OFFCURVE",
"27 300 OFFCURVE",
"60 300 CURVE SMOOTH",
"180 300 LINE SMOOTH",
"213 300 OFFCURVE",
"240 327 OFFCURVE",
"240 360 CURVE SMOOTH",
"240 393 OFFCURVE",
"213 420 OFFCURVE",
"180 420 CURVE SMOOTH",
"60 420 LINE SMOOTH",
"44 420 OFFCURVE",
"30 414 OFFCURVE",
"18 403 CURVE SMOOTH"
);
},
{
closed = 1;
nodes = (
"141 105 LINE SMOOTH",
"129 94 OFFCURVE",
"123 80 OFFCURVE",
"123 63 CURVE SMOOTH",
"123 30 OFFCURVE",
"150 3 OFFCURVE",
"183 3 CURVE SMOOTH",
"200 3 OFFCURVE",
"214 9 OFFCURVE",
"225 21 CURVE SMOOTH",
"310 105 LINE SMOOTH",
"322 117 OFFCURVE",
"328 131 OFFCURVE",
"328 148 CURVE SMOOTH",
"328 181 OFFCURVE",
"301 208 OFFCURVE",
"268 208 CURVE SMOOTH",
"251 208 OFFCURVE",
"237 202 OFFCURVE",
"225 190 CURVE SMOOTH"
);
},
{
closed = 1;
nodes = (
"129 688 OFFCURVE",
"123 673 OFFCURVE",
"123 657 CURVE SMOOTH",
"123 640 OFFCURVE",
"129 626 OFFCURVE",
"141 615 CURVE SMOOTH",
"225 530 LINE SMOOTH",
"237 518 OFFCURVE",
"251 512 OFFCURVE",
"268 512 CURVE SMOOTH",
"301 512 OFFCURVE",
"328 539 OFFCURVE",
"328 572 CURVE SMOOTH",
"328 589 OFFCURVE",
"322 603 OFFCURVE",
"310 615 CURVE SMOOTH",
"225 699 LINE SMOOTH",
"214 711 OFFCURVE",
"200 717 OFFCURVE",
"183 717 CURVE SMOOTH",
"167 717 OFFCURVE",
"152 711 OFFCURVE",
"141 699 CURVE SMOOTH"
);
},
{
closed = 1;
nodes = (
"420 -60 LINE SMOOTH",
"420 -93 OFFCURVE",
"447 -120 OFFCURVE",
"480 -120 CURVE SMOOTH",
"513 -120 OFFCURVE",
"540 -93 OFFCURVE",
"540 -60 CURVE SMOOTH",
"540 60 LINE SMOOTH",
"540 93 OFFCURVE",
"513 120 OFFCURVE",
"480 120 CURVE SMOOTH",
"447 120 OFFCURVE",
"420 93 OFFCURVE",
"420 60 CURVE SMOOTH"
);
},
{
closed = 1;
nodes = (
"420 660 LINE SMOOTH",
"420 627 OFFCURVE",
"447 600 OFFCURVE",
"480 600 CURVE SMOOTH",
"513 600 OFFCURVE",
"540 627 OFFCURVE",
"540 660 CURVE SMOOTH",
"540 780 LINE SMOOTH",
"540 813 OFFCURVE",
"513 840 OFFCURVE",
"480 840 CURVE SMOOTH",
"447 840 OFFCURVE",
"420 813 OFFCURVE",
"420 780 CURVE SMOOTH"
);
},
{
closed = 1;
nodes = (
"638 179 OFFCURVE",
"632 164 OFFCURVE",
"632 148 CURVE SMOOTH",
"632 131 OFFCURVE",
"638 117 OFFCURVE",
"650 105 CURVE SMOOTH",
"735 21 LINE SMOOTH",
"746 9 OFFCURVE",
"760 3 OFFCURVE",
"777 3 CURVE SMOOTH",
"810 3 OFFCURVE",
"837 30 OFFCURVE",
"837 63 CURVE SMOOTH",
"837 80 OFFCURVE",
"831 94 OFFCURVE",
"819 105 CURVE SMOOTH",
"735 190 LINE SMOOTH",
"723 202 OFFCURVE",
"709 208 OFFCURVE",
"692 208 CURVE SMOOTH",
"676 208 OFFCURVE",
"661 202 OFFCURVE",
"650 190 CURVE SMOOTH"
);
},
{
closed = 1;
nodes = (
"650 615 LINE SMOOTH",
"638 603 OFFCURVE",
"632 589 OFFCURVE",
"632 572 CURVE SMOOTH",
"632 539 OFFCURVE",
"659 512 OFFCURVE",
"692 512 CURVE SMOOTH",
"709 512 OFFCURVE",
"723 518 OFFCURVE",
"735 530 CURVE SMOOTH",
"819 615 LINE SMOOTH",
"831 626 OFFCURVE",
"837 640 OFFCURVE",
"837 657 CURVE SMOOTH",
"837 690 OFFCURVE",
"810 717 OFFCURVE",
"777 717 CURVE SMOOTH",
"760 717 OFFCURVE",
"746 711 OFFCURVE",
"735 699 CURVE SMOOTH"
);
},
{
closed = 1;
nodes = (
"726 391 OFFCURVE",
"720 376 OFFCURVE",
"720 360 CURVE SMOOTH",
"720 327 OFFCURVE",
"747 300 OFFCURVE",
"780 300 CURVE SMOOTH",
"900 300 LINE SMOOTH",
"933 300 OFFCURVE",
"960 327 OFFCURVE",
"960 360 CURVE SMOOTH",
"960 393 OFFCURVE",
"933 420 OFFCURVE",
"900 420 CURVE SMOOTH",
"780 420 LINE SMOOTH",
"764 420 OFFCURVE",
"750 414 OFFCURVE",
"738 403 CURVE SMOOTH"
);
}
);
width = 960;
}
);
unicode = F137;
},
{
glyphname = uniF138;
lastChange = "2013-08-30 14:22:01 +0800";
layers = (
{
layerId = "EAE21ECE-B6C3-4A45-AE76-37E4E2404B22";
name = Regular;
paths = (
{
closed = 1;
nodes = (
"13 487 OFFCURVE",
"0 425 OFFCURVE",
"0 360 CURVE SMOOTH",
"0 230 OFFCURVE",
"54 106 OFFCURVE",
"141 21 CURVE SMOOTH",
"226 -66 OFFCURVE",
"350 -120 OFFCURVE",
"480 -120 CURVE SMOOTH",
"610 -120 OFFCURVE",
"734 -66 OFFCURVE",
"820 21 CURVE SMOOTH",
"906 106 OFFCURVE",
"960 230 OFFCURVE",
"960 360 CURVE SMOOTH",
"960 491 OFFCURVE",
"906 614 OFFCURVE",
"820 700 CURVE SMOOTH",
"734 786 OFFCURVE",
"611 840 OFFCURVE",
"480 840 CURVE SMOOTH",
"350 840 OFFCURVE",
"226 786 OFFCURVE",
"141 700 CURVE SMOOTH",
"98 657 OFFCURVE",
"63 606 OFFCURVE",
"38 547 CURVE SMOOTH"
);
},
{
closed = 1;
nodes = (
"136 234 OFFCURVE",
"120 295 OFFCURVE",
"120 360 CURVE SMOOTH",
"120 491 OFFCURVE",
"189 608 OFFCURVE",
"300 672 CURVE SMOOTH",
"354 704 OFFCURVE",
"415 720 OFFCURVE",
"480 720 CURVE SMOOTH",
"611 720 OFFCURVE",
"728 651 OFFCURVE",
"792 541 CURVE SMOOTH",
"824 486 OFFCURVE",
"840 425 OFFCURVE",
"840 360 CURVE SMOOTH",
"840 229 OFFCURVE",
"771 113 OFFCURVE",
"661 48 CURVE SMOOTH",
"606 16 OFFCURVE",
"545 0 OFFCURVE",
"480 0 CURVE SMOOTH",
"349 0 OFFCURVE",
"233 69 OFFCURVE",
"168 180 CURVE SMOOTH"
);
},
{
closed = 1;
nodes = (
"360 501 OFFCURVE",
"385 405 OFFCURVE",
"405 345 CURVE SMOOTH",
"420 300 LINE",
"420 267 OFFCURVE",
"447 240 OFFCURVE",
"480 240 CURVE SMOOTH",
"513 240 OFFCURVE",
"540 267 OFFCURVE",
"540 300 CURVE",
"600 540 LINE",
"600 606 OFFCURVE",
"546 660 OFFCURVE",
"480 660 CURVE SMOOTH",
"414 660 OFFCURVE",
"360 606 OFFCURVE",
"360 540 CURVE SMOOTH"
);
},
{
closed = 1;
nodes = (
"426 151 OFFCURVE",
"420 136 OFFCURVE",
"420 120 CURVE SMOOTH",
"420 87 OFFCURVE",
"447 60 OFFCURVE",
"480 60 CURVE SMOOTH",
"513 60 OFFCURVE",
"540 87 OFFCURVE",
"540 120 CURVE SMOOTH",
"540 153 OFFCURVE",
"513 180 OFFCURVE",
"480 180 CURVE SMOOTH",
"464 180 OFFCURVE",
"450 174 OFFCURVE",
"438 163 CURVE SMOOTH"
);
}
);
width = 960;
}
);
unicode = F138;
},
{
glyphname = uniF139;
lastChange = "2013-08-30 14:22:10 +0800";
layers = (
{
layerId = "EAE21ECE-B6C3-4A45-AE76-37E4E2404B22";
name = Regular;
paths = (
{
closed = 1;
nodes = (
"13 487 OFFCURVE",
"0 425 OFFCURVE",
"0 360 CURVE SMOOTH",
"0 230 OFFCURVE",
"54 106 OFFCURVE",
"141 21 CURVE SMOOTH",
"226 -66 OFFCURVE",
"350 -120 OFFCURVE",
"480 -120 CURVE SMOOTH",
"610 -120 OFFCURVE",
"734 -66 OFFCURVE",
"820 21 CURVE SMOOTH",
"906 106 OFFCURVE",
"960 230 OFFCURVE",
"960 360 CURVE SMOOTH",
"960 491 OFFCURVE",
"906 614 OFFCURVE",
"820 700 CURVE SMOOTH",
"734 786 OFFCURVE",
"611 840 OFFCURVE",
"480 840 CURVE SMOOTH",
"350 840 OFFCURVE",
"226 786 OFFCURVE",
"141 700 CURVE SMOOTH",
"98 657 OFFCURVE",
"63 606 OFFCURVE",
"38 547 CURVE SMOOTH"
);
},
{
closed = 1;
nodes = (
"136 234 OFFCURVE",
"120 295 OFFCURVE",
"120 360 CURVE SMOOTH",
"120 491 OFFCURVE",
"189 608 OFFCURVE",
"300 672 CURVE SMOOTH",
"354 704 OFFCURVE",
"415 720 OFFCURVE",
"480 720 CURVE SMOOTH",
"611 720 OFFCURVE",
"728 651 OFFCURVE",
"792 541 CURVE SMOOTH",
"824 486 OFFCURVE",
"840 425 OFFCURVE",
"840 360 CURVE SMOOTH",
"840 229 OFFCURVE",
"771 113 OFFCURVE",
"661 48 CURVE SMOOTH",
"606 16 OFFCURVE",
"545 0 OFFCURVE",
"480 0 CURVE SMOOTH",
"349 0 OFFCURVE",
"233 69 OFFCURVE",
"168 180 CURVE SMOOTH"
);
},
{
closed = 1;
nodes = (
"310 275 LINE SMOOTH",
"299 263 OFFCURVE",
"293 249 OFFCURVE",
"293 233 CURVE SMOOTH",
"293 200 OFFCURVE",
"320 173 OFFCURVE",
"353 173 CURVE SMOOTH",
"369 173 OFFCURVE",
"383 179 OFFCURVE",
"395 190 CURVE SMOOTH",
"480 275 LINE",
"565 190 LINE SMOOTH",
"577 179 OFFCURVE",
"591 173 OFFCURVE",
"607 173 CURVE SMOOTH",
"640 173 OFFCURVE",
"668 200 OFFCURVE",
"668 233 CURVE SMOOTH",
"668 249 OFFCURVE",
"661 263 OFFCURVE",
"650 275 CURVE SMOOTH",
"565 360 LINE",
"650 445 LINE SMOOTH",
"661 457 OFFCURVE",
"668 471 OFFCURVE",
"668 487 CURVE SMOOTH",
"668 520 OFFCURVE",
"640 548 OFFCURVE",
"607 548 CURVE SMOOTH",
"591 548 OFFCURVE",
"577 541 OFFCURVE",
"565 530 CURVE SMOOTH",
"480 445 LINE",
"395 530 LINE SMOOTH",
"383 541 OFFCURVE",
"369 548 OFFCURVE",
"353 548 CURVE SMOOTH",
"320 548 OFFCURVE",
"293 520 OFFCURVE",
"293 487 CURVE SMOOTH",
"293 471 OFFCURVE",
"299 457 OFFCURVE",
"310 445 CURVE SMOOTH",
"395 360 LINE"
);
}
);
width = 960;
}
);
unicode = F139;
},
{
glyphname = uniF13A;
lastChange = "2013-08-30 14:24:30 +0800";
layers = (
{
layerId = "EAE21ECE-B6C3-4A45-AE76-37E4E2404B22";
name = Regular;
paths = (
{
closed = 1;
nodes = (
"34 280 LINE SMOOTH",
"10 302 OFFCURVE",
"0 330 OFFCURVE",
"0 360 CURVE SMOOTH",
"0 424 OFFCURVE",
"50 475 OFFCURVE",
"114 475 CURVE SMOOTH",
"146 475 OFFCURVE",
"174 465 OFFCURVE",
"198 442 CURVE SMOOTH",
"358 280 LINE",
"762 688 LINE SMOOTH",
"786 708 OFFCURVE",
"814 720 OFFCURVE",
"846 720 CURVE SMOOTH",
"910 720 OFFCURVE",
"960 668 OFFCURVE",
"960 603 CURVE SMOOTH",
"960 571 OFFCURVE",
"950 545 OFFCURVE",
"926 523 CURVE SMOOTH",
"440 32 LINE SMOOTH",
"416 12 OFFCURVE",
"390 0 OFFCURVE",
"360 0 CURVE SMOOTH",
"328 0 OFFCURVE",
"302 12 OFFCURVE",
"278 32 CURVE SMOOTH"
);
}
);
width = 960;
}
);
unicode = F13A;
},
{
glyphname = unif135;
lastChange = "2013-08-30 12:28:48 +0800";
layers = (
{
layerId = "EAE21ECE-B6C3-4A45-AE76-37E4E2404B22";
name = Regular;
paths = (
{
closed = 1;
nodes = (
"311 155 OFFCURVE",
"310 147 OFFCURVE",
"310 140 CURVE SMOOTH",
"310 133 OFFCURVE",
"311 128 OFFCURVE",
"314 123 CURVE",
"474 -39 LINE",
"481 -51 OFFCURVE",
"495 -60 OFFCURVE",
"510 -60 CURVE SMOOTH",
"525 -60 OFFCURVE",
"539 -51 OFFCURVE",
"546 -39 CURVE",
"706 123 LINE",
"709 128 OFFCURVE",
"710 133 OFFCURVE",
"710 140 CURVE SMOOTH",
"710 148 OFFCURVE",
"709 155 OFFCURVE",
"705 161 CURVE SMOOTH",
"697 173 OFFCURVE",
"685 180 OFFCURVE",
"670 180 CURVE SMOOTH",
"350 180 LINE SMOOTH",
"335 180 OFFCURVE",
"323 173 OFFCURVE",
"315 161 CURVE SMOOTH"
);
},
{
closed = 1;
nodes = (
"240 840 LINE SMOOTH",
"207 840 OFFCURVE",
"180 813 OFFCURVE",
"180 780 CURVE SMOOTH",
"180 300 LINE SMOOTH",
"180 267 OFFCURVE",
"207 240 OFFCURVE",
"240 240 CURVE SMOOTH",
"780 240 LINE SMOOTH",
"813 240 OFFCURVE",
"840 267 OFFCURVE",
"840 300 CURVE SMOOTH",
"840 780 LINE SMOOTH",
"840 813 OFFCURVE",
"813 840 OFFCURVE",
"780 840 CURVE SMOOTH"
);
},
{
closed = 1;
nodes = (
"300 360 LINE",
"300 720 LINE",
"720 720 LINE",
"720 360 LINE"
);
}
